<svg xmlns="http://www.w3.org/2000/svg" width="50.23" height="47.377" viewBox="0 0 50.23 47.377">
  <g id="noun_Wallet_177757" transform="translate(-1007.75 26.659)">
    <path id="Path_702" data-name="Path 702" d="M1014.673-13.817l-.652-3.917,1.016-1.741,32.352-6.673,2.031,1.088,1.523,1.161,1.886,10.518Z" fill="#f9c659"/>
    <path id="Path_701" data-name="Path 701" d="M-11710.271,473.021l-.8-2.321,1.307-2.176,26.983-4.86,1.669,1.088,1.813,7.471Z" transform="translate(12727.12 -486.113)" fill="#f9c659"/>
    <g id="Group_602" data-name="Group 602" transform="translate(1008 -26.398)">
      <path id="Path_699" data-name="Path 699" d="M59.73,32.949h0l-.062-3.921h.062V21.995a4.436,4.436,0,0,0-4.419-4.419H53.817l-.56-2.863a3.773,3.773,0,0,0-4.357-3.05l-30.311,5.6a5.477,5.477,0,0,0-.934.311H13.8a3.812,3.812,0,0,0-3.8,3.8V54.048a4.436,4.436,0,0,0,4.419,4.419h40.83a4.436,4.436,0,0,0,4.419-4.419V36.372Zm-1.058,3.423V47.015H41.058a2.5,2.5,0,0,1-2.49-2.49V36.372a2.5,2.5,0,0,1,2.49-2.49H58.672ZM55.311,18.509A3.48,3.48,0,0,1,58.8,21.995v3.859a4.362,4.362,0,0,0-3.485-1.743h-.249L54,18.509Zm-36.6-.311,30.311-5.6a2.819,2.819,0,0,1,2.116.436,2.754,2.754,0,0,1,1.183,1.8l1.743,9.274H50.207l-1.183-6.473a3.193,3.193,0,0,0-3.734-2.552L20.456,19.692a2.454,2.454,0,0,0-.871.311h0a3.132,3.132,0,0,0-1.68,3.423l.124.685h-1l-.5-2.676a2.678,2.678,0,0,1,1.494-2.988h0A2.23,2.23,0,0,1,18.714,18.2Zm.249,5.913-.187-.871a2.213,2.213,0,0,1,1.183-2.365l-.249-.436.249.436a1.978,1.978,0,0,1,.56-.187l24.834-4.606A2.152,2.152,0,0,1,47.9,17.825l1.183,6.286H18.963Zm-5.166-5.6h2.552a3.748,3.748,0,0,0-.809,3.112l.436,2.49H13.8a2.8,2.8,0,0,1,0-5.6ZM58.672,53.986a3.48,3.48,0,0,1-3.485,3.485H14.419a3.48,3.48,0,0,1-3.485-3.485V23.862a3.8,3.8,0,0,0,2.8,1.245H55.186a3.48,3.48,0,0,1,3.485,3.485v4.357H41.058a3.413,3.413,0,0,0-3.423,3.423v8.153a3.413,3.413,0,0,0,3.423,3.423H58.672Z" transform="translate(-10 -11.602)" fill="#53565d" stroke="#53565d" stroke-width="0.5"/>
    </g>
  </g>
</svg>
